<svg width="200" height="200" viewBox="0 0 200 200" fill="none" xmlns="http://www.w3.org/2000/svg">
<circle cx="100" cy="100" r="100" fill="#166534"/>
<path d="M96.2448 162C95.0512 154.947 91.9045 147.352 86.8047 139.214C81.7049 130.967 74.4349 123.317 64.9948 116.264C55.6632 109.211 46.3316 104.708 37 102.755V95.9193C46.2231 93.7491 55.0664 89.7344 63.5299 83.875C72.102 77.9071 79.2634 70.7457 85.0143 62.3906C90.8737 53.8186 94.6172 45.355 96.2448 37H103.081C104.057 42.4253 106.01 48.0134 108.94 53.7643C111.87 59.4067 115.613 64.832 120.171 70.0404C124.836 75.1402 130.045 79.7517 135.796 83.875C144.368 89.9514 153.102 93.9661 162 95.9193V102.755C156.032 103.949 149.847 106.39 143.445 110.079C137.152 113.769 131.293 118.163 125.867 123.263C120.442 128.254 115.993 133.517 112.521 139.051C107.421 147.189 104.274 154.839 103.081 162H96.2448Z" fill="#F5F5F4"/>
</svg>
