<svg width="966" height="966" viewBox="0 0 966 966" fill="none" xmlns="http://www.w3.org/2000/svg">
<rect width="966" height="966" fill="white"/>
<circle cx="483" cy="483" r="440" fill="#166534"/>
<path d="M466.477 755.8C461.225 724.767 447.38 691.347 424.941 655.54C402.501 619.255 370.514 585.596 328.977 554.563C287.918 523.53 246.859 503.717 205.8 495.123V465.045C246.382 455.496 285.292 437.831 322.532 412.05C360.249 385.791 391.759 354.281 417.063 317.519C442.844 279.802 459.316 242.562 466.477 205.8H496.555C500.852 229.672 509.446 254.259 522.337 279.563C535.227 304.389 551.699 328.261 571.751 351.178C592.28 373.617 615.197 393.908 640.501 412.05C678.218 438.786 716.651 456.451 755.8 465.045V495.123C729.541 500.375 702.328 511.117 674.159 527.35C646.468 543.582 620.687 562.918 596.816 585.357C572.944 607.319 553.369 630.475 538.092 654.823C515.652 690.631 501.807 724.29 496.555 755.8H466.477Z" fill="#F5F5F4"/>
</svg>
